<?xml version="1.0" encoding="utf-8"?>

<!DOCTYPE svg PUBLIC "-//W3C//DTD SVG 1.1//EN" "http://www.w3.org/Graphics/SVG/1.1/DTD/svg11.dtd">
<!-- Uploaded to: SVG Repo, www.svgrepo.com, Generator: SVG Repo Mixer Tools -->
<svg height="800px" width="800px" version="1.1" id="_x32_" xmlns="http://www.w3.org/2000/svg" xmlns:xlink="http://www.w3.org/1999/xlink" 
	 viewBox="0 0 512 512"  xml:space="preserve">
<style type="text/css">
	.st0{fill:#000000;}
</style>
<g>
	<polygon class="st0" points="56.065,343.772 168.217,455.924 210.971,438.317 73.689,301.018 	"/>
	<path class="st0" d="M500.686,11.321c-8.724-8.725-21.08-12.757-33.271-10.858l-78.402,12.234
		c-32.827,5.129-63.164,20.558-86.665,44.042l-67.5,67.483l-24.129,24.137l-28.003,28.012l-13.958-13.967l21.672-21.664
		l-45.14-16.918c-21.376-8.02-45.462-2.804-61.605,13.339L6.571,214.265c-5.564,5.564-7.802,13.61-5.912,21.22
		c1.881,7.601,7.619,13.697,15.125,16.013l81.834,25.33l137.544,137.569l25.338,81.825c2.307,7.515,8.403,13.226,16.022,15.116
		c7.602,1.889,15.656-0.34,21.212-5.904l77.096-77.114c16.144-16.143,21.36-40.22,13.358-61.605l-16.928-45.132l-21.664,21.664
		l-13.967-13.967l28.012-28.021l24.12-24.119l67.5-67.492c23.502-23.501,38.923-53.856,44.034-86.674l12.242-78.394
		C513.442,32.392,509.412,20.037,500.686,11.321z M398.443,194.552c-22.369,22.37-58.636,22.37-80.997,0
		c-22.37-22.361-22.37-58.628-0.009-81.006c22.37-22.379,58.637-22.361,81.006,0.009
		C420.804,135.925,420.812,172.174,398.443,194.552z"/>
</g>
</svg>